<svg width="20" height="20" viewBox="0 0 20 20" fill="none" xmlns="http://www.w3.org/2000/svg">
<path d="M10.1112 20C7.28875 20 4.89768 19.0319 2.93803 17.0957C0.979344 15.1586 0 12.7948 0 10.0043C0 7.21382 0.979344 4.84906 2.93803 2.91001C4.89672 0.970962 7.28778 0.000962165 10.1112 9.78472e-06C11.8282 9.78472e-06 13.4359 0.403343 14.9343 1.21001C16.4317 2.01668 17.6388 3.14287 18.5555 4.58858V0.714295C18.5555 0.511438 18.6249 0.341914 18.7635 0.205724C18.9022 0.0695336 19.0741 0.000962165 19.2792 9.78472e-06C19.4843 -0.000942596 19.6557 0.0676289 19.7934 0.205724C19.9311 0.343819 20 0.513343 20 0.714295V6.31858C20 6.64525 19.8883 6.91953 19.6649 7.14143C19.4415 7.36334 19.1641 7.47382 18.8329 7.47286H13.1663C12.9621 7.47286 12.7907 7.40429 12.652 7.26715C12.5134 7.13001 12.444 6.96001 12.444 6.75715C12.444 6.55429 12.5134 6.38477 12.652 6.24858C12.7907 6.11239 12.9621 6.04429 13.1663 6.04429H17.7885C17.0374 4.61953 15.9796 3.49382 14.6151 2.66715C13.2524 1.84144 11.7512 1.42858 10.1112 1.42858C7.70379 1.42858 5.65747 2.26191 3.97227 3.92858C2.28706 5.59525 1.44446 7.61905 1.44446 10C1.44446 12.381 2.28706 14.4048 3.97227 16.0714C5.65747 17.7381 7.70379 18.5714 10.1112 18.5714C11.8321 18.5714 13.407 18.1105 14.8361 17.1886C16.2661 16.2657 17.3263 15.0405 18.0168 13.5129C18.0986 13.3262 18.2305 13.1952 18.4125 13.12C18.5955 13.0438 18.7823 13.0376 18.973 13.1014C19.1762 13.1652 19.311 13.2962 19.3774 13.4943C19.4439 13.6924 19.4367 13.8848 19.3558 14.0714C18.5536 15.8667 17.321 17.3033 15.658 18.3814C13.9949 19.4595 12.146 19.999 10.1112 20Z" fill="#205493"/>
</svg>
